<?xml version="1.0" standalone="no"?>
<!DOCTYPE svg PUBLIC "-//W3C//DTD SVG 20010904//EN"
 "http://www.w3.org/TR/2001/REC-SVG-20010904/DTD/svg10.dtd">
<svg version="1.0" xmlns="http://www.w3.org/2000/svg"
 width="562.000000pt" height="562.000000pt" viewBox="0 0 562.000000 562.000000"
 preserveAspectRatio="xMidYMid meet">
<metadata>
Created by potrace 1.15, written by Peter Selinger 2001-2017
</metadata>
<g transform="translate(0.000000,562.000000) scale(0.100000,-0.100000)"
fill="#f6f6f6" stroke="none">
<path d="M2640 5284 c-19 -2 -78 -9 -130 -15 -529 -60 -1064 -321 -1445 -703
-381 -384 -613 -836 -707 -1382 -18 -107 -22 -168 -22 -359 -1 -310 32 -527
119 -791 265 -807 932 -1432 1745 -1634 250 -62 345 -72 649 -67 300 4 355 11
599 73 296 75 599 223 867 423 120 89 378 344 462 456 258 345 407 679 485
1094 26 137 36 544 18 701 -54 471 -245 927 -543 1295 -77 95 -283 298 -382
376 -347 274 -756 450 -1200 515 -97 14 -444 26 -515 18z m398 -244 c592 -62
1112 -336 1495 -790 325 -384 506 -860 524 -1375 18 -520 -134 -1001 -450
-1425 -91 -122 -315 -346 -437 -437 -337 -251 -720 -401 -1140 -444 -152 -16
-451 -6 -590 20 -231 42 -409 100 -615 200 -217 105 -414 244 -584 413 -344
339 -565 766 -647 1248 -25 151 -30 488 -9 646 54 410 221 799 480 1119 92
113 284 300 391 381 327 246 716 399 1124 443 110 12 346 13 458 1z"/>
<path d="M1843 4051 c-139 -48 -208 -142 -233 -319 -5 -37 -14 -161 -20 -277
-21 -419 -39 -456 -240 -492 l-45 -8 -3 -153 -3 -152 40 0 c51 0 142 -34 168
-63 58 -63 72 -136 83 -442 8 -244 23 -353 56 -418 74 -142 200 -196 442 -189
l62 2 0 134 0 133 -86 6 c-95 7 -129 22 -145 65 -6 15 -15 113 -19 217 -12
237 -18 302 -37 390 -23 105 -68 191 -139 260 l-60 60 62 62 c121 118 151 223
163 578 12 326 21 343 178 354 l88 6 3 133 3 132 -133 0 c-101 -1 -145 -5
-185 -19z"/>
<path d="M3488 4063 c-16 -4 -18 -19 -18 -134 l0 -129 58 0 c146 -2 187 -29
196 -132 3 -35 12 -155 21 -268 29 -363 54 -444 167 -543 l57 -51 -58 -58
c-70 -69 -102 -120 -129 -210 -26 -82 -30 -126 -42 -405 -10 -246 -16 -270
-73 -299 -17 -10 -68 -20 -112 -23 l-80 -6 -3 -131 -3 -131 68 -7 c152 -14
304 25 376 98 90 89 111 180 132 566 21 382 33 406 225 444 l55 11 3 151 3
151 -38 7 c-21 3 -49 6 -62 6 -14 0 -44 9 -67 21 -87 41 -117 166 -129 519 -3
107 -10 222 -16 255 -26 151 -125 258 -268 291 -52 13 -225 17 -263 7z"/>
<path d="M2122 2959 c-55 -27 -84 -70 -90 -130 -6 -62 2 -90 34 -129 75 -89
209 -92 278 -6 42 51 48 142 14 200 -46 78 -151 107 -236 65z"/>
<path d="M2732 2963 c-84 -41 -116 -153 -70 -243 32 -61 75 -85 158 -85 53 0
71 5 99 24 100 72 90 244 -19 299 -53 26 -121 29 -168 5z"/>
<path d="M3342 2959 c-168 -84 -100 -329 92 -329 107 0 174 86 168 212 -2 35
-65 106 -109 125 -47 19 -102 16 -151 -8z"/>
</g>
</svg>
