<?xml version="1.0" standalone="no"?>
<!DOCTYPE svg PUBLIC "-//W3C//DTD SVG 20010904//EN"
 "http://www.w3.org/TR/2001/REC-SVG-20010904/DTD/svg10.dtd">
<svg version="1.0" xmlns="http://www.w3.org/2000/svg"
 width="2000.000000pt" height="2000.000000pt" viewBox="0 0 2000.000000 2000.000000"
 preserveAspectRatio="xMidYMid meet">
<metadata>
Created by potrace 1.15, written by Peter Selinger 2001-2017
</metadata>
<g transform="translate(0.000000,2000.000000) scale(0.100000,-0.100000)"
fill="#000000" stroke="none">
<path d="M9585 18119 c-1713 -87 -3340 -707 -4682 -1786 -515 -414 -1010 -926
-1409 -1458 -670 -893 -1155 -1929 -1409 -3013 -149 -635 -210 -1177 -209
-1867 0 -476 19 -758 80 -1175 330 -2274 1620 -4310 3541 -5588 1552 -1033
3397 -1499 5258 -1327 1989 184 3832 1092 5199 2560 1580 1698 2353 3971 2140
6290 -137 1495 -683 2911 -1585 4115 -762 1016 -1743 1836 -2876 2404 -1251
626 -2644 917 -4048 845z m998 -1274 c883 -78 1687 -304 2477 -696 838 -416
1613 -1030 2217 -1754 809 -972 1334 -2141 1517 -3383 100 -678 100 -1346 0
-2024 -316 -2138 -1632 -4007 -3550 -5042 -819 -442 -1708 -706 -2669 -792
-238 -22 -866 -25 -1090 -6 -328 28 -654 76 -935 137 -1549 337 -2926 1192
-3915 2430 -716 896 -1189 1933 -1394 3057 -78 428 -105 742 -105 1228 0 539
39 928 140 1410 316 1508 1147 2885 2334 3871 710 589 1546 1039 2415 1299
476 142 993 238 1460 269 88 6 183 13 210 15 117 9 723 -4 888 -19z"/>
<path d="M9610 14985 c-211 -36 -414 -120 -590 -243 -95 -67 -276 -254 -342
-352 -168 -254 -242 -500 -241 -805 0 -178 20 -298 73 -452 168 -485 581 -837
1093 -930 122 -22 360 -22 484 0 197 36 406 122 568 235 111 78 288 257 359
366 118 179 198 390 226 593 17 127 8 391 -18 503 -133 570 -582 994 -1151
1086 -106 17 -359 17 -461 -1z"/>
<path d="M9370 11184 c-938 -34 -1742 -63 -1787 -63 l-83 -1 0 -326 0 -327 38
6 c87 14 561 19 676 8 376 -36 558 -148 611 -374 14 -59 15 -294 13 -2064 -3
-1887 -4 -2001 -21 -2058 -43 -143 -117 -235 -222 -274 -116 -44 -191 -51
-555 -57 -190 -3 -364 -7 -387 -10 l-43 -5 0 -320 0 -319 2445 0 2445 0 0 325
0 325 -227 0 c-532 1 -726 39 -841 165 -26 29 -56 74 -67 101 -20 49 -20 75
-23 2692 l-2 2642 -133 -1 c-72 -1 -899 -30 -1837 -65z"/>
</g>
</svg>
