<?xml version="1.0" standalone="no"?>
<!DOCTYPE svg PUBLIC "-//W3C//DTD SVG 20010904//EN"
 "http://www.w3.org/TR/2001/REC-SVG-20010904/DTD/svg10.dtd">
<svg version="1.0" xmlns="http://www.w3.org/2000/svg"
 width="191.000000pt" height="191.000000pt" viewBox="0 0 191.000000 191.000000"
 preserveAspectRatio="xMidYMid meet">
<metadata>
Created by potrace 1.15, written by Peter Selinger 2001-2017
</metadata>
<g transform="translate(0.000000,191.000000) scale(0.100000,-0.100000)"
fill="#000000" stroke="none">
<path d="M980 1782 c0 -100 -47 -208 -155 -357 -118 -162 -218 -334 -265 -455
-8 -19 -46 -70 -86 -113 -195 -208 -217 -468 -57 -665 78 -96 194 -148 366
-163 100 -9 114 -8 151 10 23 11 95 34 161 52 66 17 140 42 165 54 101 52 190
158 217 261 14 54 25 294 13 273 -3 -4 -11 28 -18 73 -16 97 -57 215 -112 314
-22 40 -40 79 -40 87 0 8 -10 22 -21 33 -21 19 -21 19 -15 -11 24 -119 34
-275 16 -275 -6 0 -10 26 -10 59 0 177 -88 467 -216 710 -30 57 -53 110 -50
116 5 15 -13 35 -31 35 -8 0 -13 -13 -13 -38z"/>
</g>
</svg>
