<svg xmlns="http://www.w3.org/2000/svg" width="36" height="36" viewBox="0 0 562 562" preserveAspectRatio="xMidYMid meet"  fill="#d7dae0" xmlns:v="https://vecta.io/nano"><path d="M264 33.6l-13 1.5c-52.9 6-106.4 32.1-144.5 70.3-38.1 38.4-61.3 83.6-70.7 138.2-1.8 10.7-2.2 16.8-2.2 35.9-.1 31 3.2 52.7 11.9 79.1C72 439.3 138.7 501.8 220 522c25 6.2 34.5 7.2 64.9 6.7 30-.4 35.5-1.1 59.9-7.3 29.6-7.5 59.9-22.3 86.7-42.3 12-8.9 37.8-34.4 46.2-45.6 25.8-34.5 40.7-67.9 48.5-109.4 2.6-13.7 3.6-54.4 1.8-70.1-5.4-47.1-24.5-92.7-54.3-129.5-7.7-9.5-28.3-29.8-38.2-37.6-34.7-27.4-75.6-45-120-51.5-9.7-1.4-44.4-2.6-51.5-1.8zM303.8 58C363 64.2 415 91.6 453.3 137c32.5 38.4 50.6 86 52.4 137.5 1.8 52-13.4 100.1-45 142.5-9.1 12.2-31.5 34.6-43.7 43.7-33.7 25.1-72 40.1-114 44.4-15.2 1.6-45.1.6-59-2-23.1-4.2-40.9-10-61.5-20-21.7-10.5-41.4-24.4-58.4-41.3-34.4-33.9-56.5-76.6-64.7-124.8-2.5-15.1-3-48.8-.9-64.6 5.4-41 22.1-79.9 48-111.9 9.2-11.3 28.4-30 39.1-38.1 32.7-24.6 71.6-39.9 112.4-44.3 11-1.2 34.6-1.3 45.8-.1zm-119.5 98.9c-13.9 4.8-20.8 14.2-23.3 31.9-.5 3.7-1.4 16.1-2 27.7-2.1 41.9-3.9 45.6-24 49.2l-4.5.8-.3 15.3-.3 15.2h4c5.1 0 14.2 3.4 16.8 6.3 5.8 6.3 7.2 13.6 8.3 44.2.8 24.4 2.3 35.3 5.6 41.8 7.4 14.2 20 19.6 44.2 18.9l6.2-.2v-13.4-13.3l-8.6-.6c-9.5-.7-12.9-2.2-14.5-6.5-.6-1.5-1.5-11.3-1.9-21.7-1.2-23.7-1.8-30.2-3.7-39-2.3-10.5-6.8-19.1-13.9-26l-6-6 6.2-6.2c12.1-11.8 15.1-22.3 16.3-57.8 1.2-32.6 2.1-34.3 17.8-35.4l8.8-.6.3-13.3.3-13.2h-13.3c-10.1.1-14.5.5-18.5 1.9zm164.5-1.2c-1.6.4-1.8 1.9-1.8 13.4V182h5.8c14.6.2 18.7 2.9 19.6 13.2l2.1 26.8c2.9 36.3 5.4 44.4 16.7 54.3l5.7 5.1-5.8 5.8c-7 6.9-10.2 12-12.9 21-2.6 8.2-3 12.6-4.2 40.5-1 24.6-1.6 27-7.3 29.9-1.7 1-6.8 2-11.2 2.3l-8 .6-.3 13.1-.3 13.1 6.8.7c15.2 1.4 30.4-2.5 37.6-9.8 9-8.9 11.1-18 13.2-56.6 2.1-38.2 3.3-40.6 22.5-44.4l5.5-1.1.3-15.1.3-15.1-3.8-.7c-2.1-.3-4.9-.6-6.2-.6-1.4 0-4.4-.9-6.7-2.1-8.7-4.1-11.7-16.6-12.9-51.9-.3-10.7-1-22.2-1.6-25.5-2.6-15.1-12.5-25.8-26.8-29.1-5.2-1.3-22.5-1.7-26.3-.7zM212.2 266.1c-5.5 2.7-8.4 7-9 13-.6 6.2.2 9 3.4 12.9 7.5 8.9 20.9 9.2 27.8.6 4.2-5.1 4.8-14.2 1.4-20-4.6-7.8-15.1-10.7-23.6-6.5zm61-.4c-8.4 4.1-11.6 15.3-7 24.3 3.2 6.1 7.5 8.5 15.8 8.5 5.3 0 7.1-.5 9.9-2.4 10-7.2 9-24.4-1.9-29.9-5.3-2.6-12.1-2.9-16.8-.5zm61 .4c-16.8 8.4-10 32.9 9.2 32.9 10.7 0 17.4-8.6 16.8-21.2-.2-3.5-6.5-10.6-10.9-12.5-4.7-1.9-10.2-1.6-15.1.8z"/></svg>
